<?xml version="1.0" encoding="UTF-8"?>
<svg width="512px" height="512px" viewBox="0 0 512 512" version="1.1" xmlns="http://www.w3.org/2000/svg" xmlns:xlink="http://www.w3.org/1999/xlink">
    <style>
    path {
      fill: #000;
    }
    @media (prefers-color-scheme: dark) {
      path {
        fill: #fff;
      }
    }
    </style>black
    <title>favicon</title>
    <g  transform="translate(83.666667, 83.666667)">
      <path d="M303.747336,203.022831 C289.582953,201.449011 275.418569,198.30137 262.828006,193.579909 C245.515982,187.284627 226.630137,192.006088 212.465753,204.596651 L201.449011,215.613394 C173.120244,196.727549 147.939117,173.120244 129.053272,143.217656 L140.070015,132.200913 C152.660578,119.61035 157.38204,99.1506849 151.086758,81.8386606 C146.365297,69.2480974 143.217656,55.0837139 141.643836,40.9193303 C138.496195,17.3120244 118.03653,1.42108547e-14 94.4292237,1.42108547e-14 C94.4292237,1.42108547e-14 94.4292237,1.42108547e-14 94.4292237,1.42108547e-14 L47.2146119,1.42108547e-14 C45.6407915,1.42108547e-14 44.0669711,1.42108547e-14 42.4931507,1.42108547e-14 C29.9025875,1.5738204 18.8858447,7.86910198 11.0167428,17.3120244 C3.14764079,26.7549467 1.42108547e-14,39.3455099 1.42108547e-14,51.9360731 C4.72146119,102.298326 23.6073059,152.660578 50.3622527,195.153729 C75.543379,234.499239 110.167428,269.123288 149.512938,294.304414 C192.006088,322.633181 242.368341,339.945205 292.730594,344.666667 C294.304414,344.666667 295.878234,344.666667 297.452055,344.666667 C297.452055,344.666667 297.452055,344.666667 297.452055,344.666667 C310.042618,344.666667 322.633181,339.945205 330.502283,330.502283 C338.371385,321.059361 344.666667,310.042618 344.666667,297.452055 L344.666667,250.237443 C344.666667,226.630137 327.354642,206.170472 303.747336,203.022831 Z M313.190259,250.237443 L313.190259,297.452055 C313.190259,302.173516 311.616438,305.321157 308.468798,308.468798 C305.321157,311.616438 302.173516,313.190259 295.878234,313.190259 C250.237443,308.468798 206.170472,292.730594 166.824962,267.549467 C130.627093,245.515982 100.724505,214.039574 77.1171994,177.841705 C51.9360731,138.496195 36.1978691,94.4292237 31.4764079,48.7884323 C31.4764079,44.0669711 33.0502283,40.9193303 34.6240487,37.7716895 C37.7716895,34.6240487 42.4931507,31.4764079 47.2146119,31.4764079 L94.4292237,31.4764079 C94.4292237,31.4764079 94.4292237,31.4764079 94.4292237,31.4764079 C102.298326,31.4764079 108.593607,37.7716895 110.167428,45.6407915 C111.741248,61.3789954 116.462709,78.6910198 122.757991,92.8554033 C124.331811,99.1506849 122.757991,105.445967 119.61035,110.167428 L99.1506849,129.053272 C94.4292237,133.774734 92.8554033,141.643836 96.0030441,147.939117 C119.61035,190.432268 154.234399,225.056317 196.727549,248.663623 C203.022831,251.811263 210.891933,251.811263 215.613394,245.515982 L236.073059,225.056317 C240.794521,220.334855 247.089802,218.761035 253.385084,221.908676 C269.123288,228.203957 284.861492,231.351598 300.599696,234.499239 C306.894977,236.073059 313.190259,242.368341 313.190259,250.237443 C313.190259,250.237443 313.190259,250.237443 313.190259,250.237443 Z" id="path-1"></path>
    </g>
</svg>
